{"title":"Abduction (2011) HDRip NL subs DutchReleaseTeam [Actie&amp;Thril","uid":6796856,"size":741434581,"categoryP":"video","categoryS":"movies","magnet":"?xt=urn:btih:3d129090ebe989254a62b3fa046cb96ec2b122fb&amp;dn=Abduction+%282011%29+HDRip+NL+subs+DutchReleaseTeam+%5BActie%26amp%3BThril&amp;tr=udp%3A%2F%2Ftracker.openbittorrent.com%3A80&amp;tr=udp%3A%2F%2Fopen.demonii.com%3A1337&amp;tr=udp%3A%2F%2Ftracker.coppersurfer.tk%3A6969&amp;tr=udp%3A%2F%2Fexodus.desync.com%3A6969","seeders":6,"leechers":0,"uploader":"Koedje","files":10,"time":1320489057,"description":" &lt;a href=&quot;http://img204.imageshack.us/img204/7296/abductionl.jpg&quot; rel=&quot;nofollow&quot; target=&quot;_NEW&quot;&gt;http://img204.imageshack.us/img204/7296/abductionl.jpg&lt;/a&gt;\n\n\nVerenigde Staten\nActie / Thriller\n106 minuten\n\ngeregisseerd door John Singleton\nmet Taylor Lautner, Lily Collins en Alfred Molina\n\nWat zou je doen als je je eigen foto op een site met vermiste personen zou zien? Het overkomt Nathan Harper (Taylor Lautner), die op zoek gaat naar zijn ware identiteit en er al snel achterkomt dat zijn ouders totaal andere mensen zijn dan dat ze beweren. Wanneer de politie en de regering dan achter hem aan komt, zal Nathan in een race tegen de klok op zoek moeten naar de waarheid.\n\n\n\nVertaald door Simply ReleaseS Toppers\nMarkow87 en Jesprulin\n\n\n\n\n\nScreenshots:\n &lt;a href=&quot;\nhttp://img528.imageshack.us/img528/6762/screenshot1mk.jpg&quot; rel=&quot;nofollow&quot; target=&quot;_NEW&quot;&gt;\nhttp://img528.imageshack.us/img528/6762/screenshot1mk.jpg&lt;/a&gt;\n &lt;a href=&quot;\nhttp://img710.imageshack.us/img710/6316/screenshot2hv.jpg&quot; rel=&quot;nofollow&quot; target=&quot;_NEW&quot;&gt;\nhttp://img710.imageshack.us/img710/6316/screenshot2hv.jpg&lt;/a&gt;\n &lt;a href=&quot;\nhttp://img266.imageshack.us/img266/8239/screenshot3hb.jpg&quot; rel=&quot;nofollow&quot; target=&quot;_NEW&quot;&gt;\nhttp://img266.imageshack.us/img266/8239/screenshot3hb.jpg&lt;/a&gt;\n &lt;a href=&quot;\nhttp://img824.imageshack.us/img824/1313/screenshot4vt.jpg&quot; rel=&quot;nofollow&quot; target=&quot;_NEW&quot;&gt;\nhttp://img824.imageshack.us/img824/1313/screenshot4vt.jpg&lt;/a&gt;\n\n\n\nINFO;\n\n\nVideo\nID                                       : 0\nFormat                                   : MPEG-4 Visual\nFormat profile                           : Advanced Simple@L5\nFormat settings, BVOP                    : 1\nFormat settings, QPel                    : No\nFormat settings, GMC                     : No warppoints\nFormat settings, Matrix                  : Custom\nCodec ID                                 : XVID\nCodec ID/Hint                            : XviD\nDuration                                 : 1h 46mn\nBit rate                                 : 787 Kbps\nWidth                                    : 656 pixels\nHeight                                   : 288 pixels\nDisplay aspect ratio                     : 2.25:1\nFrame rate                               : 29.970 fps\nColor space                              : YUV\nChroma subsampling                       : 4:2:0\nBit depth                                : 8 bits\nScan type                                : Progressive\nCompression mode                         : Lossy\nBits/(Pixel*Frame)                       : 0.139\nStream size                              : 602 MiB (86%)\nWriting library                          : XviD 64\n\nAudio\nID                                       : 1\nFormat                                   : MPEG Audio\nFormat version                           : Version 1\nFormat profile                           : Layer 3\nMode                                     : Joint stereo\nMode extension                           : MS Stereo\nCodec ID                                 : 55\nCodec ID/Hint                            : MP3\nDuration                                 : 1h 46mn\nBit rate mode                            : Variable\nBit rate                                 : 113 Kbps\nNominal bit rate                         : 128 Kbps\nChannel(s)                               : 2 channels\nSampling rate                            : 48.0 KHz\nCompression mode                         : Lossy\nStream size                              : 86.3 MiB (12%)\nAlignment                                : Aligned on interleaves\nInterleave, duration                     : 24 ms (0.72 video frame)\nInterleave, preload duration             : 414 ms\n\n\n\n &lt;a href=&quot;\nhttp://www.imdb.com/title/tt1600195/&quot; rel=&quot;nofollow&quot; target=&quot;_NEW&quot;&gt;\nhttp://www.imdb.com/title/tt1600195/&lt;/a&gt; &lt;a href=&quot;\nhttp://www.moviemeter.nl/film/71502&quot; rel=&quot;nofollow&quot; target=&quot;_NEW&quot;&gt;\nhttp://www.moviemeter.nl/film/71502&lt;/a&gt;\n\n\n\n\nDeze film wordt u aangeboden door het DutchReleaseTeam.\nVoor de reviews van de nieuwste films, muziek, series, games etc\nga dan eens naar http://www.hetmultimediacafe.be\n\nDutchReleaseteam = Hardcoded Dutch Subs","torrent":{"xt":"urn:btih:3d129090ebe989254a62b3fa046cb96ec2b122fb","amp;dn":"Abduction+%282011%29+HDRip+NL+subs+DutchReleaseTeam+%5BActie%26amp%3BThril","amp;tr":["udp%3A%2F%2Ftracker.openbittorrent.com%3A80","udp%3A%2F%2Fopen.demonii.com%3A1337","udp%3A%2F%2Ftracker.coppersurfer.tk%3A6969","udp%3A%2F%2Fexodus.desync.com%3A6969"],"infoHash":"3d129090ebe989254a62b3fa046cb96ec2b122fb","infoHashBuffer":{"type":"Buffer","data":[61,18,144,144,235,233,137,37,74,98,179,250,4,108,185,110,194,177,34,251]},"announce":[],"urlList":[]}}